<?xml version="1.0" encoding="UTF-8"?>
<svg data-bbox="-0.002 0.003 87.904 88.641" viewBox="0 0 87.9 88.65" xmlns="http://www.w3.org/2000/svg" data-type="shape">
    <g>
        <path d="M71.49 10.41C61.79 2.37 50.89-.98 38.28.25c-47.9 4.64-52.34 76.16-4.86 87.11 45.95 10.6 74.14-47.07 38.07-76.95m-7.95 64.73c-15.72 5.66-28.72 11.19-43.16-.79-21.65-17.98-13.53-45.88 6.23-61.42.74-.58 3.59-2.9 4.26-2.35-1.09 3.63-1.87 7.6-2.23 11.37-2.89 30.09 9.39 39.03 33.8 51.56.81.42 1.47-.41 1.11 1.62Zm2.81-46.09v6.25l-3.64-4.86-4.25 3.04v-7.9l-2.43-2.43 5.47.61 2.02-4.37 2.84 6.2 6.07 1.82-6.07 1.65Z"/>
    </g>
</svg>
