<svg width="62" height="20" viewBox="0 0 62 20" fill="none" xmlns="http://www.w3.org/2000/svg">
<g clip-path="url(#clip0_749_6328)">
<g clip-path="url(#clip1_749_6328)">
<g clip-path="url(#clip2_749_6328)">
<path d="M7.81863 7.28662V9.47771H12.8431C12.6961 10.7006 12.3039 11.5924 11.6912 12.2293C10.9559 12.9936 9.80392 13.8344 7.81863 13.8344C4.73039 13.8344 2.30392 11.2357 2.30392 8.02548C2.30392 4.81529 4.70588 2.19108 7.81863 2.19108C9.48529 2.19108 10.7108 2.87898 11.6176 3.74522L13.0882 2.21656C11.8382 0.968153 10.1471 0 7.81863 0C3.57843 0 0 3.59236 0 8C0 12.4076 3.57843 16 7.81863 16C10.1225 16 11.8382 15.2102 13.1863 13.758C14.5833 12.3057 15 10.293 15 8.63694C15 8.12739 14.9755 7.66879 14.8775 7.26115H7.81863V7.28662Z" fill="#4285F4"/>
<path d="M21 5C18.2549 5 16 7.0936 16 10C16 12.8818 18.2304 15 21 15C23.7696 15 26 12.8818 26 10C25.9755 7.0936 23.7451 5 21 5ZM21 13.0296C19.5049 13.0296 18.2059 11.7734 18.2059 10C18.2059 8.20197 19.5049 6.97044 21 6.97044C22.4951 6.97044 23.7941 8.20197 23.7941 10C23.7941 11.7734 22.4951 13.0296 21 13.0296Z" fill="#EA4335"/>
<path d="M44.9948 6.14991H44.9249C44.4585 5.53663 43.5725 5 42.4301 5C40.0751 5 38 7.24872 38 10.1874C38 13.1005 40.0518 15.3748 42.4301 15.3748C43.5725 15.3748 44.4585 14.8126 44.9249 14.1993H44.9948V14.9148C44.9948 16.8825 44.0155 17.9557 42.4767 17.9557C41.2176 17.9557 40.4249 16.9591 40.0984 16.1158L38.3031 16.9336C38.8161 18.3135 40.1917 20 42.5 20C44.9249 20 47 18.4412 47 14.6082V5.28109H45.0415V6.14991H44.9948ZM42.6166 13.3305C41.1943 13.3305 40.0984 12.0017 40.0984 10.1874C40.0984 8.34753 41.1943 7.04429 42.6166 7.04429C44.0389 7.04429 45.1347 8.37308 45.1347 10.2129C45.158 12.0017 44.0389 13.3305 42.6166 13.3305Z" fill="#4285F4"/>
<path d="M32 5C29.2549 5 27 7.0936 27 10C27 12.8818 29.2304 15 32 15C34.7696 15 37 12.8818 37 10C36.9755 7.0936 34.7451 5 32 5ZM32 13.0296C30.5049 13.0296 29.2059 11.7734 29.2059 10C29.2059 8.20197 30.5049 6.97044 32 6.97044C33.4951 6.97044 34.7941 8.20197 34.7941 10C34.7941 11.7734 33.4951 13.0296 32 13.0296Z" fill="#FBBC05"/>
<path d="M49 0H51V15H49V0Z" fill="#34A853"/>
<path d="M57.8257 13.0049C56.7399 13.0049 55.9678 12.4877 55.4611 11.5025L62 8.74384L61.7828 8.17734C61.3727 7.06896 60.1421 5 57.6086 5C55.0992 5 53 7.0197 53 10C53 12.8079 55.0751 15 57.8499 15C60.0938 15 61.3968 13.5961 61.9276 12.7833L60.2627 11.6502C59.6836 12.4384 58.9115 13.0049 57.8257 13.0049ZM57.681 6.84729C58.5496 6.84729 59.2976 7.31527 59.5389 7.95567L55.1233 9.82759C55.0992 7.70936 56.571 6.84729 57.681 6.84729Z" fill="#EA4335"/>
</g>
</g>
</g>
<defs>
<clipPath id="clip0_749_6328">
<rect width="62" height="20" fill="white"/>
</clipPath>
<clipPath id="clip1_749_6328">
<rect width="62" height="20" fill="white"/>
</clipPath>
<clipPath id="clip2_749_6328">
<rect width="62" height="20" fill="white"/>
</clipPath>
</defs>
</svg>
