<?xml version="1.0" encoding="UTF-8" standalone="no"?>
<!-- Created with Inkscape (http://www.inkscape.org/) -->

<svg
   xmlns:dc="http://purl.org/dc/elements/1.1/"
   xmlns:cc="http://creativecommons.org/ns#"
   xmlns:rdf="http://www.w3.org/1999/02/22-rdf-syntax-ns#"
   xmlns:svg="http://www.w3.org/2000/svg"
   xmlns="http://www.w3.org/2000/svg"
   xmlns:sodipodi="http://sodipodi.sourceforge.net/DTD/sodipodi-0.dtd"
   xmlns:inkscape="http://www.inkscape.org/namespaces/inkscape"
   width="117.21014mm"
   height="114.23203mm"
   viewBox="0 0 117.21014 114.23203"
   version="1.1"
   id="svg8"
   inkscape:version="0.92.5 (2060ec1f9f, 2020-04-08)"
   sodipodi:docname="logo.svg">
  <defs
     id="defs2" />
  <sodipodi:namedview
     id="base"
     pagecolor="#ffffff"
     bordercolor="#666666"
     borderopacity="1.0"
     inkscape:pageopacity="0.0"
     inkscape:pageshadow="2"
     inkscape:zoom="0.35"
     inkscape:cx="218.64233"
     inkscape:cy="184.44298"
     inkscape:document-units="mm"
     inkscape:current-layer="layer1"
     showgrid="false"
     inkscape:window-width="3378"
     inkscape:window-height="1417"
     inkscape:window-x="-8"
     inkscape:window-y="-8"
     inkscape:window-maximized="1" />
  <metadata
     id="metadata5">
    <rdf:RDF>
      <cc:Work
         rdf:about="">
        <dc:format>image/svg+xml</dc:format>
        <dc:type
           rdf:resource="http://purl.org/dc/dcmitype/StillImage" />
        <dc:title></dc:title>
      </cc:Work>
    </rdf:RDF>
  </metadata>
  <g
     inkscape:label="Ebene 1"
     inkscape:groupmode="layer"
     id="layer1"
     transform="translate(-47.984216,-83.401842)">
    <g
       id="layer1-5"
       inkscape:label="Ebene 1"
       transform="translate(3.7644964,-2.2678594)">
      <g
         transform="translate(16.287765,71.132993)"
         id="g3745"
         style="enable-background:new">
        <g
           transform="translate(-30.169384,-56.644299)"
           style="display:inline;opacity:0"
           id="layer1-1" />
        <g
           transform="translate(-30.169384,-56.644299)"
           id="layer3">
          <path
             inkscape:connector-curvature="0"
             id="path29"
             d="m 112.62476,84.992698 -7.3136,-8.457079 c -2.55549,1.307521 0.46712,12.847583 -0.0336,14.560092 -0.0575,0.196417 -0.0976,0.554183 -0.1442,1.096223 -0.0466,0.54204 -0.0934,1.25076 -0.137,2.07914 -0.0872,1.656747 -0.16236,3.789477 -0.2067,6.000236 -0.0443,2.20689 -0.11936,4.33922 -0.20428,5.9976 -0.0425,0.82919 -0.0874,1.53919 -0.1322,2.07914 -0.0448,0.53993 -0.0965,0.92714 -0.12737,1.04087 -0.0337,0.12386 -0.1577,0.42993 -0.3461,0.83799 -0.1884,0.40805 -0.44234,0.92693 -0.74266,1.52048 -0.60063,1.1871 -1.38846,2.67179 -2.21595,4.16354 -3.746945,6.75493 -6.250547,12.79775 -9.027233,21.78743 -0.974534,3.15516 -1.51386,4.96688 -1.80977,6.32172 -0.295898,1.35484 -0.344369,2.25558 -0.34128,3.55483 0.0049,1.94702 0.232561,3.64035 0.706606,5.22549 0.188458,0.63013 0.332851,1.2328 0.413378,1.68914 0.04024,0.22817 0.06362,0.41892 0.06965,0.55338 0.0025,0.0672 0.0012,0.12021 -0.0025,0.1502 -0.0037,0.0301 -0.01797,0.0328 0.01231,0 0.01587,-0.0174 -0.0062,0.004 -0.04565,0.0238 -0.03925,0.0192 -0.09746,0.0429 -0.16824,0.0685 -0.141587,0.0513 -0.337109,0.1109 -0.569609,0.17392 -0.465001,0.12615 -1.078774,0.2662 -1.72325,0.38737 -4.825329,0.90723 -9.890199,-0.7629 -14.833895,-4.91456 -0.913805,-0.76741 -1.600859,-1.25833 -2.081359,-1.50468 -0.24025,-0.12318 -0.42421,-0.19218 -0.593645,-0.18445 -0.08471,0.004 -0.174557,0.0321 -0.240342,0.10281 -0.06578,0.0707 -0.09355,0.17144 -0.09614,0.26351 -0.0052,0.18414 0.06229,0.3769 0.177854,0.6219 0.115561,0.245 0.285643,0.53551 0.511927,0.87751 0.452569,0.68397 1.129389,1.56516 2.033291,2.6246 1.508542,1.76813 2.659851,2.71615 4.388645,3.61544 3.206197,1.66779 5.186545,2.07313 10.808165,2.20825 2.328396,0.056 3.548745,0.097 4.266069,0.22398 0.717324,0.12696 0.918384,0.31147 1.321881,0.73522 1.636311,1.71839 5.155855,2.8374 10.803357,3.52583 1.74023,0.21214 4.04412,0.50615 5.11687,0.65088 h 0.003 c 1.296,0.17472 2.75898,0.28157 3.98246,0.31095 0.61212,0.0147 1.16519,0.009 1.60789,-0.0158 0.4427,-0.0256 0.76476,-0.0634 0.97098,-0.15021 0.25482,-0.10726 0.44314,-0.2669 0.53596,-0.48223 0.0928,-0.21531 0.0765,-0.46624 -0.0192,-0.70621 -0.19158,-0.47996 -0.67953,-0.97454 -1.42523,-1.47041 -0.65496,-0.43557 -1.33043,-1.08318 -1.79055,-1.65753 -0.23005,-0.28715 -0.40466,-0.55757 -0.4975,-0.76154 -0.0464,-0.102 -0.0719,-0.18885 -0.0769,-0.23982 -0.003,-0.0268 9.8e-4,-0.0201 0.003,-0.0263 0.024,-0.003 0.0513,-0.005 0.0938,-0.005 0.10656,10e-4 0.25972,0.014 0.44463,0.0368 0.36983,0.0456 0.86639,0.13208 1.39158,0.24771 1.45745,0.32091 2.0947,0.67056 2.85526,1.55475 0.79147,0.92011 1.36374,1.23376 2.23999,1.21217 0.70236,-0.0173 1.5372,-0.21416 2.22796,-0.47697 0.34538,-0.13141 0.65349,-0.27935 0.89408,-0.4348 0.24057,-0.15546 0.42458,-0.3056 0.4927,-0.52966 0.0256,-0.0842 0.009,-0.15752 -0.0123,-0.22136 -0.0213,-0.0638 -0.0518,-0.12224 -0.0913,-0.18446 -0.079,-0.12453 -0.19169,-0.25987 -0.33407,-0.40845 -0.28479,-0.29713 -0.68632,-0.64316 -1.14403,-0.97236 -0.44024,-0.31665 -0.88707,-0.71668 -1.24497,-1.1015 -0.35791,-0.38482 -0.62861,-0.76564 -0.71382,-0.98818 -0.0455,-0.11886 -0.11075,-0.5068 -0.15862,-1.1094 -0.0479,-0.60261 -0.086,-1.43496 -0.11776,-2.51129 -0.0635,-2.1527 -0.0955,-5.28046 -0.0986,-9.51817 l -0.01,-12.17703 1.07914,-2.45597 c 1.01736,-2.31493 1.11389,-2.83274 1.12719,-6.14517 l 0.0144,-3.61543 -1.74248,-4.01596 c -1.5463,-3.5652 -1.79457,-4.48595 -2.50675,-9.23622 -0.2191,-1.46135 -0.39487,-2.9134 -0.50233,-4.0792 -0.0538,-0.58291 -0.0919,-1.09397 -0.10816,-1.49677 -0.0162,-0.40281 -0.009,-0.70491 0.0123,-0.83007 0.21664,-1.276301 1.00984,-3.472335 2.20099,-3.472335 0.31002,0 0.29331,-0.118325 0.91357,-0.389891 0.62025,-0.271513 1.25888,-0.660122 1.9535,-1.070926 1.58642,-0.938218 3.38792,-0.527104 4.11059,-1.612574 0.72268,-1.085456 1.61623,-2.683661 1.61623,-4.145395 0,-0.701475 0.22535,-1.024459 0.13367,-1.381538 -0.0917,-0.357092 -1.09921,-0.390498 -1.34611,-0.494386 -0.12501,-0.05262 -0.2847,-0.06409 -0.52635,-0.07906 -0.24166,-0.01498 -0.54986,-0.02253 -0.90849,-0.02105 -0.71725,0.0027 -1.63136,0.03899 -2.56926,0.105373 -1.67487,0.118729 -2.52791,0.171024 -3.02109,0.09229 -0.49318,-0.07879 -0.63774,-0.255754 -1.01425,-0.700949 -0.32302,-0.381944 -0.679,-0.652053 -1.22334,-0.861692 -0.54433,-0.209638 -1.27693,-0.36632 -2.3914,-0.548111 z m 0.0505,0.368925 2.70385,0.442712 c 1.10797,0.180725 1.14783,0.532015 1.65308,0.726597 0.50526,0.194594 0.50729,0.855364 1.30233,1.070925 0.37904,0.44819 1.11024,0.223238 1.67357,0.31323 0.56333,0.08999 1.4155,0.02914 3.0908,-0.08959 0.93168,-0.06598 1.83903,-0.09984 2.54762,-0.102809 0.35428,-0.0013 0.66041,0.004 0.89166,0.01848 0.23126,0.0143 0.40354,0.04884 0.42541,0.05802 0.15335,0.06449 0.0864,0.580384 0.16168,0.873591 0.0753,0.293208 0.76181,0.192841 0.76181,0.881768 0,1.405621 -0.79269,2.697262 -1.47392,3.720479 -0.68124,1.023232 -2.28369,0.542337 -3.84605,1.466322 -0.68316,0.404017 -1.34692,0.805403 -1.95349,1.070925 -0.60657,0.265522 -0.7251,0.557772 -0.89869,0.557772 -1.32812,0 -2.29374,2.170197 -2.5357,3.595638 -0.0336,0.197877 -0.0335,0.498707 -0.0169,0.911767 0.0166,0.41305 0.054,0.93029 0.10816,1.51784 0.10829,1.1751 0.28456,2.63179 0.50473,4.10029 0.7131,4.75642 0.98567,5.75752 2.53559,9.33108 l 1.71124,3.94218 -0.0144,3.53374 c -0.0133,3.3061 -0.0828,3.68691 -1.09596,5.99234 l -1.11277,2.53237 0.01,12.2561 c 0.002,4.2395 0.0348,7.37128 0.0986,9.53133 0.0319,1.08002 0.0714,1.9159 0.1201,2.52975 0.0487,0.61384 0.0989,0.99236 0.18506,1.21743 0.12359,0.32276 0.40982,0.70234 0.78352,1.10413 0.3737,0.40181 0.83445,0.8121 1.29545,1.14366 0.44351,0.31901 0.83358,0.65658 1.09836,0.93285 0.13238,0.13813 0.23268,0.2615 0.2908,0.3531 0.0282,0.0444 0.0433,0.0796 0.0505,0.10011 -0.0197,0.0521 -0.13165,0.19022 -0.33889,0.32413 -0.21276,0.13747 -0.50589,0.28007 -0.83639,0.40581 -0.661,0.25149 -1.47517,0.43981 -2.12701,0.45588 -0.80984,0.02 -1.23092,-0.20798 -1.99725,-1.09885 -0.7956,-0.92493 -1.54227,-1.33032 -3.02831,-1.65752 -0.53315,-0.11738 -1.03258,-0.20568 -1.41561,-0.25297 -0.19152,-0.0236 -0.35292,-0.0379 -0.47828,-0.0395 -0.0626,-7.2e-4 -0.11727,7.1e-4 -0.16584,0.008 -0.0486,0.007 -0.0935,-2.3e-4 -0.16343,0.0764 -0.0842,0.0923 -0.10779,0.22538 -0.0961,0.34257 0.0111,0.11725 0.0511,0.23301 0.10816,0.35839 0.11407,0.25075 0.30609,0.53602 0.54798,0.83797 0.48378,0.6039 1.17307,1.26849 1.86504,1.72866 0.71516,0.47558 1.15321,0.95673 1.29305,1.30704 0.0699,0.17515 0.0705,0.30328 0.024,0.41108 -0.0465,0.1078 -0.15355,0.21434 -0.35812,0.3004 -0.1153,0.0486 -0.44195,0.1016 -0.87243,0.12642 -0.43048,0.025 -0.97515,0.0304 -1.58146,0.0158 -1.2126,-0.0291 -2.66821,-0.13523 -3.95122,-0.30831 h -0.003 -0.003 c -1.07675,-0.14524 -3.37618,-0.43606 -5.11689,-0.64825 -5.623043,-0.68544 -9.097119,-1.83853 -10.613489,-3.43096 -0.412442,-0.43315 -0.731759,-0.69499 -1.49492,-0.83009 -0.763163,-0.13508 -1.982613,-0.17063 -4.311736,-0.22661 -5.60935,-0.13478 -7.497776,-0.52077 -10.675978,-2.174 -1.699671,-0.88414 -2.797986,-1.78751 -4.290097,-3.53638 -0.897712,-1.05218 -1.566862,-1.92539 -2.006853,-2.59035 -0.219995,-0.33248 -0.383923,-0.61491 -0.487894,-0.83534 -0.103969,-0.22043 -0.141087,-0.38533 -0.139399,-0.44535 8.43e-4,-0.03 0.0034,-0.0247 -0.0025,-0.0185 -0.0058,0.007 -0.0053,0.001 0.02643,0 0.0635,-0.003 0.223837,0.0382 0.442229,0.15021 0.436783,0.22392 1.117008,0.70575 2.021274,1.46514 4.995586,4.19523 10.157828,5.90706 15.086253,4.98043 0.65159,-0.12251 1.269498,-0.26369 1.744884,-0.39263 0.237691,-0.0645 0.44147,-0.12588 0.596041,-0.18183 0.07728,-0.0279 0.14241,-0.0525 0.197085,-0.0791 0.05464,-0.0266 0.09561,-0.047 0.144208,-0.10011 0.06264,-0.0687 0.07088,-0.13452 0.07925,-0.20028 0.0086,-0.0657 0.0086,-0.13729 0.0049,-0.21872 -0.0074,-0.16285 -0.03249,-0.36495 -0.07457,-0.60344 -0.08417,-0.47698 -0.233201,-1.09131 -0.425401,-1.73393 -0.462317,-1.54594 -0.685502,-3.1978 -0.689784,-5.11484 -0.0025,-1.28899 0.04381,-2.14117 0.334069,-3.47048 0.290336,-1.32931 0.826068,-3.13378 1.800159,-6.28748 2.77185,-8.97398 5.262778,-14.98439 8.998389,-21.71891 0.82967,-1.49568 1.61984,-2.98164 2.22317,-4.17408 0.30166,-0.59622 0.55615,-1.1193 0.74746,-1.53365 0.19131,-0.41436 0.31668,-0.71106 0.36773,-0.8986 0.0538,-0.19771 0.0941,-0.5602 0.1394,-1.10676 0.0453,-0.54656 0.0896,-1.26043 0.13218,-2.09231 0.0853,-1.66376 0.15994,-3.80009 0.20429,-6.01078 0.0443,-2.206802 0.11973,-4.33597 0.20669,-5.987064 0.0434,-0.825547 0.0909,-1.533565 0.137,-2.068589 0.0461,-0.535038 0.0993,-0.915606 0.12979,-1.019804 0.44271,-1.513962 -1.4764,-10.888859 1.02627,-12.169342 z m 2.41063,53.588427 c -0.10102,-0.0121 -0.1654,0.0216 -0.25476,0.0606 -0.0893,0.039 -0.19195,0.095 -0.30523,0.16339 -0.22657,0.13678 -0.49652,0.32703 -0.75949,0.54021 l -1.05268,0.85378 0.73783,1.37027 c 0.4311,0.8011 0.63932,1.79151 0.63932,3.09632 0,2.06253 -0.37077,3.12134 -1.38437,4.02123 -0.15807,0.14035 -0.28851,0.26353 -0.38695,0.4269 -0.0984,0.16337 -0.15596,0.35969 -0.17304,0.60871 -0.0342,0.49805 0.0655,1.23143 0.26197,2.61672 l 0.43021,3.03569 1.30025,0.23189 c 0.63751,0.11333 1.47097,0.35185 1.79535,0.50595 0.31712,0.15065 0.5695,0.25648 0.78832,0.30304 0.21881,0.0465 0.42052,0.032 0.57441,-0.0949 0.1539,-0.12682 0.23091,-0.33096 0.27399,-0.58764 0.0431,-0.25669 0.0553,-0.58012 0.0553,-0.99081 0,-0.66512 -0.0225,-1.08009 -0.14901,-1.38873 -0.12654,-0.30866 -0.37504,-0.46302 -0.6994,-0.55602 -0.13955,-0.0401 -0.24532,-0.0797 -0.31245,-0.11333 -0.0671,-0.0336 -0.0872,-0.0617 -0.0842,-0.0553 0.004,0.007 -0.005,0.0302 0.01,-0.003 0.015,-0.0328 0.0608,-0.0982 0.13458,-0.1792 0.15616,-0.1712 0.24837,-0.44139 0.32206,-0.76683 0.0737,-0.32544 0.11727,-0.70425 0.11297,-1.06986 -0.0128,-1.09746 -0.3734,-4.0345 -0.7667,-6.73281 -0.19664,-1.34916 -0.40252,-2.63223 -0.57681,-3.58381 -0.0871,-0.47578 -0.16754,-0.86937 -0.23554,-1.14892 -0.034,-0.13978 -0.0634,-0.24948 -0.0938,-0.33467 -0.0151,-0.0426 -0.0298,-0.0799 -0.0504,-0.1159 -0.0207,-0.036 -0.0417,-0.10065 -0.15142,-0.11333 z m -0.0961,0.37947 c 0.0214,0.0627 0.0492,0.15301 0.0794,0.27669 0.0646,0.26585 0.14189,0.65598 0.22831,1.12785 0.17286,0.94372 0.37826,2.22477 0.57442,3.57062 0.39234,2.6917 0.75005,5.66295 0.76189,6.68011 0.004,0.33139 -0.0345,0.68682 -0.10091,0.98027 -0.0665,0.29346 -0.17335,0.52736 -0.23794,0.59818 -0.0853,0.0935 -0.15091,0.1758 -0.19467,0.27143 -0.0438,0.0957 -0.0571,0.23047 -0.005,0.33466 0.0523,0.10415 0.13789,0.16187 0.23554,0.21081 0.0976,0.049 0.21439,0.0892 0.36291,0.13181 0.28839,0.0827 0.40414,0.1541 0.48789,0.35838 0.0838,0.20429 0.11776,0.58736 0.11776,1.24117 0,0.40212 -0.0144,0.70998 -0.0504,0.92492 -0.0361,0.21496 -0.0907,0.32284 -0.14661,0.36893 -0.056,0.0461 -0.14402,0.0658 -0.31725,0.029 -0.17322,-0.0368 -0.41479,-0.13276 -0.72342,-0.27933 -0.39193,-0.18617 -1.20927,-0.4144 -1.87227,-0.5323 l -1.06471,-0.18972 -0.39416,-2.78009 c -0.19632,-1.38368 -0.28807,-2.11949 -0.25957,-2.53502 0.0143,-0.20775 0.0543,-0.32798 0.12023,-0.43744 0.066,-0.10942 0.16745,-0.2127 0.31964,-0.34783 1.08355,-0.96199 1.50454,-2.18584 1.50454,-4.29792 0,-1.34683 -0.21747,-2.40936 -0.68497,-3.27814 l -0.58644,-1.09359 0.81717,-0.66406 c 0.25174,-0.20405 0.51067,-0.38685 0.72102,-0.51385 0.10521,-0.0636 0.19907,-0.11172 0.26918,-0.14229 0.0266,-0.0121 0.0193,-0.008 0.0384,-0.0135 z m -8.49128,18.42234 c -0.52819,0.0467 -1.07343,0.21079 -1.86985,0.51121 -0.80174,0.30244 -1.40829,0.54311 -1.83141,0.73785 -0.21155,0.0974 -0.37786,0.18127 -0.50231,0.26088 -0.12444,0.0796 -0.21433,0.13908 -0.26678,0.27405 -0.0262,0.0675 -0.0224,0.17001 0.0169,0.23716 0.0391,0.0672 0.0902,0.10052 0.14181,0.12642 0.10336,0.052 0.22943,0.077 0.39897,0.10011 0.33906,0.0462 0.8438,0.0664 1.52616,0.0738 2.89331,0.0314 4.73574,0.69108 5.57112,1.89994 l 0.9133,1.32285 0.12979,-2.14238 c 0.0283,-0.47058 0.0123,-0.95041 -0.0384,-1.35447 -0.0504,-0.40404 -0.11616,-0.7229 -0.26918,-0.92493 l -0.0481,-0.0633 h -0.0529 c -0.16349,-0.16708 -0.38705,-0.30549 -0.72343,-0.44798 -0.38346,-0.16243 -0.8547,-0.31365 -1.32909,-0.42162 -0.72697,-0.16548 -1.23832,-0.23642 -1.76651,-0.18973 z m 0.024,0.34784 c 0.48981,-0.0439 0.96126,0.0267 1.67759,0.18972 0.45624,0.10389 0.91237,0.25434 1.27622,0.40846 0.36385,0.15412 0.6434,0.34136 0.69218,0.40581 0.0503,0.0664 0.14761,0.36663 0.19468,0.74311 0.047,0.37648 0.0652,0.83812 0.0384,1.28332 l -0.0721,1.18582 -0.38696,-0.55865 c -0.93806,-1.35747 -2.88945,-2.0103 -5.82588,-2.04225 -0.67825,-0.007 -1.18272,-0.0263 -1.49252,-0.0685 -0.10324,-0.014 -0.1465,-0.031 -0.20189,-0.0475 0.0194,-0.0166 0.01,-0.0108 0.0384,-0.029 0.10288,-0.0658 0.25705,-0.14571 0.46146,-0.23979 0.40884,-0.18818 1.01295,-0.42845 1.81218,-0.72995 0.78847,-0.29743 1.29834,-0.45682 1.78814,-0.50067 z"
             style="color:#000000;font-style:normal;font-variant:normal;font-weight:normal;font-stretch:normal;font-size:medium;line-height:normal;font-family:sans-serif;font-variant-ligatures:normal;font-variant-position:normal;font-variant-caps:normal;font-variant-numeric:normal;font-variant-alternates:normal;font-feature-settings:normal;text-indent:0;text-align:start;text-decoration:none;text-decoration-line:none;text-decoration-style:solid;text-decoration-color:#000000;letter-spacing:normal;word-spacing:normal;text-transform:none;writing-mode:lr-tb;direction:ltr;text-orientation:mixed;dominant-baseline:auto;baseline-shift:baseline;text-anchor:start;white-space:normal;shape-padding:0;clip-rule:nonzero;display:inline;overflow:visible;visibility:visible;opacity:1;isolation:auto;mix-blend-mode:normal;color-interpolation:sRGB;color-interpolation-filters:linearRGB;solid-color:#000000;solid-opacity:1;vector-effect:none;fill:none;fill-opacity:1;fill-rule:nonzero;stroke:none;stroke-width:0.34091786;stroke-linecap:butt;stroke-linejoin:miter;stroke-miterlimit:4;stroke-dasharray:none;stroke-dashoffset:0;stroke-opacity:1;color-rendering:auto;image-rendering:auto;shape-rendering:auto;text-rendering:auto;enable-background:accumulate" />
          <path
             inkscape:connector-curvature="0"
             id="path4656"
             d="m 112.49445,164.53267 c -1.8159,-0.16053 -7.91373,-0.92102 -9.74332,-1.21513 -3.092451,-0.49712 -5.685051,-1.29137 -7.128139,-2.18373 -0.285184,-0.17635 -0.796014,-0.57018 -1.13518,-0.87519 -0.339167,-0.305 -0.736625,-0.60952 -0.883242,-0.67671 -0.476803,-0.2185 -1.442387,-0.3074 -4.353649,-0.40085 -4.331728,-0.13905 -6.013819,-0.29766 -7.630869,-0.71953 -1.863985,-0.48629 -4.49283,-1.7971 -5.846805,-2.91538 -0.89869,-0.74225 -2.636118,-2.65152 -3.528616,-3.87763 -0.551378,-0.75747 -1.190119,-1.81601 -1.190119,-1.9723 0,-0.1014 0.511598,0.13967 1.021689,0.48144 0.229457,0.15375 0.894418,0.66633 1.47769,1.13907 2.959171,2.39842 5.765654,3.92217 8.559494,4.64729 1.84599,0.47911 3.791338,0.62487 5.532676,0.41456 0.88329,-0.10668 2.464392,-0.45242 3.20036,-0.69983 l 0.475839,-0.15997 -0.01087,-0.67129 c -0.0082,-0.50667 -0.104685,-1.02503 -0.393409,-2.11369 -0.495749,-1.86926 -0.622996,-2.72881 -0.680914,-4.5995 -0.08306,-2.68261 0.131526,-3.82826 1.652971,-8.82511 2.161243,-7.09812 3.907142,-11.85879 6.053007,-16.50514 1.076364,-2.33061 1.772656,-3.69892 3.532356,-6.94154 1.52033,-2.80154 2.60222,-4.90004 2.96766,-5.75624 0.38697,-0.90669 0.49048,-2.30754 0.69039,-9.34386 0.14086,-4.95829 0.24838,-7.304784 0.39449,-8.609303 0.14245,-1.271892 0.12562,-2.985173 -0.0545,-5.544217 -0.23861,-3.390842 -0.10908,-5.587282 0.39215,-6.650029 0.14787,-0.313502 0.57879,-0.832405 0.69127,-0.832405 0.0445,0 1.43544,1.412458 3.09097,3.138797 l 3.01006,3.1388 1.29548,0.202665 c 0.71251,0.111466 1.50323,0.258607 1.75716,0.326986 0.60612,0.16322 1.4955,0.705097 1.78137,1.085351 0.12527,0.166625 0.44883,0.436616 0.71902,0.599982 l 0.49126,0.297028 1.84999,-0.0011 c 1.0175,-7.13e-4 2.8381,-0.03746 4.04578,-0.08199 2.45215,-0.09041 2.87072,-0.161038 2.87072,0.415596 0,0.335389 0.0605,0.524344 0.0605,0.788928 0,0.264583 0,0 0,0.264583 0.12594,0.210744 0.0941,0.745406 0,1.322917 -0.18484,1.134021 -1.01778,2.712061 -1.61703,3.051827 -0.12802,0.07258 -0.54461,0.196768 -0.92577,0.275963 -1.49885,0.311432 -1.7781,0.416326 -3.283,1.233181 -0.83661,0.454108 -1.61361,0.894719 -1.72666,0.979133 -0.11306,0.08441 -0.3494,0.178063 -0.52522,0.208109 -0.88417,0.151104 -1.82488,1.509909 -2.23089,3.222393 -0.10842,0.457295 -0.12594,0.782005 -0.0824,1.527335 0.11915,2.04086 0.73538,6.646 1.19911,8.96102 0.39576,1.97571 0.90153,3.39284 2.6194,7.33938 l 0.99336,2.2821 v 2.81373 c 0,2.9824 -0.0707,3.99535 -0.34044,4.87773 -0.0917,0.30009 -0.55217,1.43551 -1.02318,2.52316 l -0.85638,1.97755 0.004,5.14429 c 0.005,7.36729 0.13845,17.67062 0.24472,18.93699 0.0568,0.67645 0.14986,1.22802 0.24852,1.47257 0.21064,0.52211 1.08547,1.45951 2.09305,2.24276 0.45222,0.35153 0.95172,0.78748 1.11,0.96877 l 0.28778,0.32962 -0.20556,0.17427 c -0.58305,0.49431 -2.58718,1.0592 -3.39161,0.95597 -0.58294,-0.0748 -0.88418,-0.26958 -1.71445,-1.10853 -1.0154,-1.02602 -1.54144,-1.30475 -3.11134,-1.64859 -1.1576,-0.25353 -1.95012,-0.32401 -2.10087,-0.18684 -0.46934,0.42707 0.47551,1.85531 2.01384,3.04413 1.39798,1.08035 1.79776,1.52704 1.69241,1.89097 -0.1109,0.38309 -0.32826,0.42593 -2.22685,0.43893 -0.99489,0.007 -1.97539,-0.002 -2.17889,-0.0203 z m -1.7814,-3.26276 c 0.0169,-2.20269 -0.0239,-2.33655 -0.84971,-2.78867 -0.90786,-0.49702 -1.69538,-0.68073 -2.95999,-0.69049 l -1.11,-0.009 -1.27444,0.47619 c -1.6094,0.60135 -2.49818,1.07261 -2.53332,1.34325 -0.0444,0.34212 0.24591,0.41715 1.91665,0.49531 2.32952,0.10897 3.35866,0.29824 4.3913,0.80759 0.71487,0.35261 1.12938,0.74605 1.74298,1.65442 0.40975,0.60656 0.534,0.73841 0.59089,0.62697 0.0396,-0.0776 0.0782,-0.93982 0.0856,-1.916 z m 6.62746,-4.59206 c 0.2262,-0.20092 0.32949,-0.69341 0.33197,-1.58278 0.004,-1.29202 -0.20176,-1.73607 -0.91059,-1.96892 l -0.31473,-0.10338 0.15001,-0.23464 c 0.44466,-0.69553 0.47943,-1.87878 0.13931,-4.74213 -0.41141,-3.46365 -1.22815,-8.52262 -1.44894,-8.97496 -0.11166,-0.22875 -0.24951,-0.22103 -0.71972,0.0403 -0.53624,0.29802 -1.87313,1.39565 -1.84375,1.5138 0.0133,0.0532 0.22212,0.46683 0.46418,0.91911 0.24207,0.45229 0.5206,1.10631 0.61897,1.45338 0.22037,0.77752 0.30441,2.3332 0.17847,3.30376 -0.15079,1.16199 -0.35525,1.61957 -1.11808,2.5021 -0.75223,0.87028 -0.8339,1.08821 -0.74097,1.97725 0.11378,1.08868 0.62264,4.66683 0.688,4.83787 0.0577,0.15093 0.24635,0.21319 1.1583,0.38221 0.59918,0.11106 1.44588,0.34073 1.88157,0.51039 0.90662,0.35305 1.23473,0.38984 1.486,0.16666 z"
             style="fill:#999999;fill-opacity:1;fill-rule:nonzero;stroke:none;stroke-width:0.03253975;stroke-miterlimit:4;stroke-dasharray:none;stroke-opacity:1" />
        </g>
        <g
           transform="translate(-30.169384,-56.644299)"
           id="layer4">
          <path
             inkscape:connector-curvature="0"
             id="path4644"
             d="m 95.417257,164.85009 c -0.62056,-0.0711 -1.44882,-0.23174 -1.82212,-0.35329 -0.23819,-0.0776 -0.34186,-0.15618 -0.48342,-0.36665 -0.58744,-0.87336 -1.19515,-3.1108 -1.4146,-5.20821 -0.16577,-1.58433 -0.28411,-2.06872 -0.56982,-2.33233 -0.1688,-0.15571 -0.21446,-0.16645 -0.59184,-0.13917 -0.31487,0.0228 -0.58788,0.10699 -1.18702,0.36646 -0.87452,0.37865 -1.67842,0.63821 -1.98314,0.6403 -0.28081,0.001 -0.66825,0.2072 -0.97365,0.51585 -0.33967,0.34328 -0.67211,0.4959 -1.23292,0.56603 -0.54256,0.0679 -0.7668,0.17924 -1.06272,0.5279 -0.20548,0.2421 -0.2233,0.25022 -0.34884,0.15894 -0.36557,-0.26586 -0.59523,-1.24489 -0.54982,-2.34383 0.0352,-0.85065 0.22938,-1.74675 0.79097,-3.64924 0.53714,-1.81966 0.86463,-3.05542 0.99362,-3.74942 0.1557,-0.83769 0.3471,-1.39746 1.26274,-3.69306 0.90998,-2.28141 1.55527,-4.2894 2.10004,-6.53476 0.78881,-3.25119 1.62565,-5.19407 3.24767,-7.54011 2.23093,-3.22675 4.59522,-5.48833 7.271294,-6.95537 3.831419,-2.10043 10.394879,-3.32039 17.864739,-3.32054 5.03459,-1.3e-4 6.24404,-0.69211 9.57178,-5.47664 1.2011,-1.7269 2.32658,-3.19926 4.00776,-5.243 0.45172,-0.54914 1.05135,-1.3093 1.33248,-1.68926 0.28114,-0.37995 0.72538,-0.93466 0.98722,-1.23267 0.26182,-0.29801 0.59445,-0.71394 0.73916,-0.92431 0.14472,-0.21037 0.66243,-0.87013 1.15048,-1.46615 0.48805,-0.59603 0.92699,-1.14997 0.97542,-1.23097 0.50311,-0.58701 0.7677,-0.58701 1.03228,-0.85159 0,0 0.51214,-0.38703 0.91531,-0.74349 0.40317,-0.35644 0.55222,-0.264 0.57348,-0.264 0.0506,0 0.18012,0.23215 0.0668,0.79521 -0.0493,0.24542 -0.19292,0.74516 -0.31902,1.11054 -0.42163,1.22187 -0.74772,2.91311 -0.58316,3.02462 0.0336,0.0228 0.11371,-0.032 0.17809,-0.12169 0.17166,-0.2393 0.67562,-1.34622 0.79294,-1.74171 0.17713,-0.59706 0.68942,-1.49244 1.25135,-2.19408 0.0251,-0.0314 0.0504,-0.0624 0.0757,-0.093 0.16723,-0.20197 0.2235,-0.30161 0.48809,-0.5662 0.26458,-0.26458 0.52919,-0.26458 0.52917,0 2e-5,0.26458 -0.26456,1.05833 -0.26458,2.11667 2e-5,0.52916 0.0219,1.23706 0.007,1.12729 -0.0283,-0.20847 -0.007,0.46021 -0.007,0.72479 -0.13406,0.49056 0.41607,0.87936 1.38354,1.42424 0.94946,0.53472 1.67563,1.24232 2.42182,2.35986 0.48961,0.73328 1.01351,1.27707 1.478,1.53416 0.19028,0.10538 0.91392,0.39517 1.60808,0.64411 1.9351,0.69397 2.87915,1.17896 3.52355,1.81018 l 0.16841,0.16495 -0.19294,0.48906 c -0.56544,1.43324 -0.99933,2.20636 -1.46657,2.61317 -0.51022,0.44421 -1.02058,0.63446 -2.42731,0.90482 -1.50306,0.28888 -1.84385,0.42048 -2.01198,0.77696 -0.20601,0.43678 -0.007,1.2326 0.67386,2.69615 0.71147,1.52911 1.53048,2.97503 2.56391,4.52636 0.96404,1.44718 1.05084,1.69048 0.81038,2.27151 -0.1542,0.37257 -0.15176,0.90595 0.006,1.36895 0.068,0.19954 0.36462,0.88189 0.65893,1.51635 0.80916,1.7443 0.8572,2.23476 0.32572,3.32534 -0.43647,0.89567 -0.47122,1.10904 -0.52354,3.21473 -0.0452,1.81852 -0.0876,2.16734 -0.26353,2.16734 -0.20657,0 -0.56071,0.46989 -0.84354,1.11921 -0.19678,0.45176 -0.34382,0.70196 -0.47707,0.81176 -0.33335,0.27469 -0.96995,0.58638 -2.11124,1.0337 -2.9612,1.16064 -3.68677,1.52561 -4.32909,2.17763 -0.40208,0.40818 -0.86574,1.08859 -1.12204,1.64661 -0.30069,0.65464 -0.3479,0.94013 -0.36374,2.19921 -0.0111,0.86323 -0.0413,1.2902 -0.11395,1.59306 -0.32801,1.36947 -0.97992,2.34736 -2.20192,3.30298 -0.7325,0.57283 -1.1878,1.08273 -1.40559,1.57415 -0.40586,0.91574 -0.24384,3.22797 0.31637,4.51494 0.1945,0.44684 0.35204,0.62059 1.3038,1.43804 0.90232,0.77498 1.40591,1.40939 1.53934,1.93923 0.18202,0.72278 -0.28926,0.85812 -3.18913,0.91583 l -1.94962,0.0389 -1.03983,-1.25504 c -1.08781,-1.31297 -1.83933,-2.08859 -2.18306,-2.25307 -0.11185,-0.0536 -0.26658,-0.12926 -0.34371,-0.16824 -0.33857,-0.17105 -1.25016,-1.31162 -1.90259,-2.38047 -0.47959,-0.78569 -0.8094,-1.53486 -0.88899,-2.01934 -0.0756,-0.45982 -0.16843,-0.63677 -0.78635,-1.49807 -0.62503,-0.87121 -0.65859,-0.90297 -1.31163,-1.24168 -2.20615,-1.1442 -8.38127,-2.80065 -12.90635,-3.46206 -1.13989,-0.16662 -4.58894,-0.16448 -5.43607,0.003 -1.49879,0.29696 -2.2958,0.72451 -4.41862,2.37031 -1.46369,1.1348 -3.152129,2.24655 -4.787443,3.15231 -1.7629,0.97643 -2.42316,1.80288 -2.57029,3.21724 -0.06,0.57682 0.009,1.45031 0.14915,1.88553 0.15614,0.48524 0.47903,0.87234 1.13045,1.3553 0.52097,0.38623 0.91189,0.77181 1.02443,1.0104 0.15962,0.33844 0.1107,0.49697 -0.28347,0.91865 -0.53197,0.56911 -1.03646,0.7174 -2.04659,0.60158 z"
             style="fill:#333333;fill-opacity:1;fill-rule:nonzero;stroke:none;stroke-width:0.02300908;stroke-miterlimit:4;stroke-dasharray:none;stroke-opacity:1" />
          <ellipse
             ry="51.761391"
             rx="53.721184"
             cy="122.9424"
             cx="115.07864"
             id="path4658"
             style="fill:none;fill-opacity:1;fill-rule:nonzero;stroke:none;stroke-width:0.12885086;stroke-miterlimit:4;stroke-dasharray:none;stroke-opacity:1" />
          <ellipse
             ry="5.3546271"
             rx="3.2558291"
             cy="180.05841"
             cx="172.05565"
             id="path4660"
             style="fill:none;fill-opacity:1;fill-rule:nonzero;stroke:none;stroke-width:0.12885086;stroke-miterlimit:4;stroke-dasharray:none;stroke-opacity:1" />
          <ellipse
             ry="43.72945"
             rx="51.279312"
             cy="125.61971"
             cx="117.52051"
             id="path4662"
             style="fill:none;fill-opacity:1;fill-rule:nonzero;stroke:none;stroke-width:0.12885086;stroke-miterlimit:4;stroke-dasharray:none;stroke-opacity:1" />
          <ellipse
             ry="46.406765"
             rx="52.907227"
             cy="122.9424"
             cx="115.8926"
             id="path4664"
             style="fill:none;fill-opacity:1;fill-rule:nonzero;stroke:none;stroke-width:0.12885086;stroke-miterlimit:4;stroke-dasharray:none;stroke-opacity:1" />
        </g>
        <g
           transform="translate(-30.169384,-56.644299)"
           id="layer5">
          <path
             inkscape:connector-curvature="0"
             transform="matrix(1.2305496,0,0,1.3491973,-3.7591238,-67.153893)"
             id="path8637"
             d="m 50.270833,170 c 0.04601,-0.38512 5.308141,-0.007 13.791437,0.43839 8.930642,0.46844 19.750683,0.90445 33.147467,0.85386 25.896213,-0.0978 46.912493,-2.01857 46.988183,-1.29225 0.0683,0.65587 -20.84667,3.84111 -46.978284,3.93796 -13.258904,0.0491 -24.595498,-0.68618 -33.307838,-1.63594 C 55.418711,171.37617 50.230246,170.33976 50.270833,170 Z"
             style="fill:#d45500;stroke:none;stroke-width:0.26458332px;stroke-linecap:butt;stroke-linejoin:miter;stroke-opacity:1" />
        </g>
      </g>
    </g>
  </g>
</svg>
