<svg xmlns="http://www.w3.org/2000/svg" fill="none" viewBox="0 0 168 32">
    <path fill="#004993" d="M27.098.699H3.87C1.734.699 0 2.069 0 3.759v24.482c0 1.69 1.734 3.06 3.871 3.06h23.227c2.137 0 3.87-1.37 3.87-3.06V3.759c0-1.69-1.733-3.06-3.87-3.06z"/>
    <path fill="#fffefc" d="M15.795 9.382c-.835-.62-2.263-1.033-3.871-1.033s-3.036.413-3.871 1.033C7.218 8.762 5.79 8.35 4.182 8.35v2.296h1.393c.513 0 .93.308.93.688v12.164H9.6V11.333c0-.38.416-.688.93-.688h2.786c.513 0 .93.308.93.688v12.164h3.096V11.333c0-.38.417-.688.93-.688h1.083c.172 0 .31-.205.31-.46V8.661a.309.309 0 0 0-.322-.306c-1.475.05-2.77.448-3.549 1.027zM24.62 13.323h-2.167c-.257 0-.465.136-.465.306v9.869h3.097v-9.87c0-.169-.207-.305-.464-.305z"/>
    <path fill="#78af41" d="M26.324 8.35h-1.626V6.742c0-.17-.208-.306-.465-.306H22.84c-.257 0-.464.136-.464.306v1.606h-1.626c-.171 0-.31.205-.31.46v1.377c0 .254.139.459.31.459h1.626v1.606c0 .17.207.306.465.306h1.393c.257 0 .465-.136.465-.306v-1.606h1.626c.171 0 .31-.205.31-.46V8.809c0-.254-.139-.459-.31-.459z"/>
    <path fill="#004993" d="M90.584 12.48h-2.322v11.017h2.322v-5.839zM90.74 8.808h-2.633V11.41h2.633v-1.223ZM134.791 12.48h-2.322v11.017h2.322v-5.482zM134.947 8.808h-2.633v2.602h2.633v-1.285ZM69.37 17.224h-5.575v-2.219c0-.38.416-.688.93-.688h3.716c.513 0 .929.309.929.688zm2.322-1.99c0-1.51-1.677-2.753-3.716-2.753H65.19c-2.04 0-3.716 1.243-3.716 2.754v5.508c0 1.511 1.677 2.754 3.716 2.754h6.194v-1.836h-6.659c-.513 0-.929-.308-.929-.688v-2.219h7.897zM103.048 12.48h-5.574c-2.04 0-3.716 1.244-3.716 2.755v5.508c0 1.511 1.677 2.754 3.716 2.754h5.574v-1.836H97.01c-.513 0-.93-.308-.93-.688v-5.968c0-.38.417-.688.93-.688h6.038zM125.502 12.48h-2.168c-.983 0-1.831.494-2.168 1.181v-1.18h-2.168v11.016h2.323v-8.492c0-.38.416-.688.929-.688h3.716c.513 0 .929.309.929.688v8.492h2.323v-8.262c0-1.511-1.677-2.754-3.716-2.754zM150.587 12.48h-1.548c-1.307 0-2.414.606-2.71 1.41-.296-.805-1.403-1.41-2.71-1.41h-1.238c-.983 0-1.831.494-2.168 1.181v-1.18h-2.168v11.016h2.323v-8.492c0-.38.416-.688.929-.688h2.787c.513 0 .929.309.929.688v8.492h2.323v-8.492c0-.38.416-.688.929-.688h2.787c.513 0 .929.309.929.688v8.492h2.323v-8.262c0-1.511-1.677-2.754-3.717-2.754zM54.66 8.808h-2.787c-1.136 0-2.123.458-2.555 1.107-.431-.649-1.418-1.107-2.555-1.107h-2.168c-.983 0-1.83.494-2.167 1.18v-1.18H40.26v14.69h2.322V11.332c0-.38.417-.689.93-.689h3.716c.513 0 .929.31.929.689v12.164h2.323V11.333c0-.38.416-.689.929-.689h3.716c.513 0 .929.31.929.689v12.164h2.323V11.563c0-1.511-1.677-2.755-3.717-2.755zM82.532 20.973c0 .38-.416.688-.93.688h-3.716c-.512 0-.929-.309-.929-.688 0-.013 0-.026.002-.039h-.002v-5.929c0-.38.417-.688.93-.688h3.716c.513 0 .929.308.929.688zm.155-12.165v4.853c-.338-.687-1.185-1.18-2.168-1.18H78.35c-2.04 0-3.716 1.243-3.716 2.754v5.508c0 1.511 1.677 2.754 3.716 2.754h2.168c.983 0 1.83-.493 2.168-1.18v1.18h2.168V8.808ZM113.424 20.973c0 .38-.416.688-.929.688h-3.716c-.513 0-.929-.308-.929-.688v-2.295c0-.38.416-.689.929-.689h4.645zm-1.393-8.492h-5.575v1.836h6.039c.513 0 .929.309.929.688v1.454h-4.18c-2.04 0-3.717 1.243-3.717 2.754v1.53c0 1.511 1.677 2.754 3.717 2.754h2.167c.983 0 1.831-.493 2.168-1.18v1.18h2.168v-8.262c0-1.511-1.677-2.754-3.716-2.754zM164.676 20.973c0 .38-.416.688-.929.688h-3.716c-.513 0-.929-.308-.929-.688v-2.295c0-.38.416-.689.929-.689h4.645zm-1.393-8.492h-5.575v1.836h6.039c.513 0 .929.309.929.688v1.454h-4.18c-2.04 0-3.717 1.243-3.717 2.754v1.53c0 1.511 1.677 2.754 3.717 2.754h2.167c.983 0 1.831-.493 2.168-1.18v1.18h2.168v-8.262c0-1.511-1.677-2.754-3.716-2.754z"/>
</svg>
