<svg width="160" height="43" viewBox="0 0 160 43" fill="none" xmlns="http://www.w3.org/2000/svg">
<path fill-rule="evenodd" clip-rule="evenodd" d="M108.114 18.3555C108.061 18.9999 107.853 20.6833 106.694 20.5138C105.992 20.411 105.817 19.7388 105.817 18.5999V0.266602H104.497L99.5361 2.19716V3.55549H100.597C101.15 3.55549 101.597 4.00321 101.597 4.55549V8.76938C99.9139 7.23327 98.5417 6.88049 96.425 6.88049C92.5361 6.88049 88.875 9.93605 88.875 14.8166C88.875 21.3027 93.3694 23.4416 96.4333 23.4416C99.6972 23.4416 101.092 22.0027 101.914 20.8444H101.928C102.366 22.4221 103.827 23.495 105.464 23.4416C107.408 23.4416 109.4 22.2249 109.4 18.4888L108.114 18.3555ZM93.1528 15.1472C93.1528 18.6782 94.587 21.5324 97.4195 21.536L97.4139 21.536H97.425L97.4195 21.536C100.338 21.5324 101.697 18.6782 101.697 15.1472C101.697 11.6138 100.544 8.75827 97.425 8.75827C94.5083 8.75827 93.1528 11.6138 93.1528 15.1472ZM40.6472 42.3138L43.2833 34.336L41.6528 34.3249L40.4389 38.1694C40.1139 39.2249 39.8556 40.0805 39.675 40.7333C39.3944 39.6972 39.1361 38.8333 38.9111 38.1472L37.6972 34.3333H36.0306L38.675 42.3138H40.6472ZM47.8167 35.661H51.8528V34.336H46.2417V42.3138H51.9833V40.9916H47.8167V38.8555H51.5944V37.5277H47.8167V35.661ZM61.0833 35.6833H58.7333V42.3138H57.1611V35.6833H54.8139V34.336H61.0861L61.0833 35.6833ZM65.7833 35.661H69.8194L69.8139 34.336H64.2111V42.3138H69.95V40.9916H65.7833V38.8555H69.5611V37.5277H65.7833V35.661ZM78.2528 42.3277L76.3417 39.3722H74.8694V42.3138H73.2944V34.336H77.0722C78.5917 34.336 79.7028 35.3694 79.7028 36.8527C79.7466 37.9518 79.0309 38.9375 77.9722 39.236L80.0083 42.3138L78.2528 42.3277ZM76.7917 38.0583H74.8694V35.6388H76.7917C77.6361 35.6388 78.1528 36.086 78.1528 36.8527C78.1528 37.6194 77.625 38.0583 76.7917 38.0583ZM84.6111 42.3138H83.0361V34.336H84.6111V42.3138ZM95.0667 42.3138V34.3333L93.5556 34.336V37.236C93.5556 38.4472 93.5778 39.4055 93.6111 40.1138C93.5411 39.9976 93.4658 39.8715 93.3848 39.7358L93.3836 39.7338L93.3833 39.7334C93.1431 39.3311 92.8525 38.8445 92.5 38.2805L92.1972 37.7749L90.05 34.336H88.3417V42.3138H89.8694V39.561C89.8694 38.4185 89.8472 37.3842 89.8028 36.4583C90.0713 36.9416 90.5213 37.6944 91.1528 38.7166L91.3778 39.0777L93.4 42.3138H95.0667ZM103.4 40.7222H99.925L99.3694 42.3166H97.7833L100.647 34.336H102.717L105.569 42.3138H103.939L103.4 40.7222ZM102.636 38.4944L102.95 39.4166L100.375 39.4222L100.681 38.5222L100.792 38.186C101.208 36.9833 101.5 36.111 101.658 35.5555C101.847 36.2194 102.119 37.0166 102.444 37.9388C102.467 38.011 102.533 38.2027 102.636 38.4944ZM113.25 42.3138L111.339 39.3583H109.867V42.3138H108.292V34.336H112.069C113.589 34.336 114.7 35.3694 114.7 36.8527C114.743 37.9515 114.028 38.9366 112.969 39.236L115.003 42.3138H113.25ZM111.789 38.0555H109.867V35.636H111.789C112.631 35.636 113.15 36.0833 113.15 36.8499C113.15 37.6166 112.622 38.0555 111.789 38.0555ZM123.981 34.336L121.147 38.9805V42.3138H119.575V38.9527L116.758 34.336H118.489L120.389 37.5722L122.289 34.336H123.981ZM47.4528 15.1472C47.4528 18.6765 48.8857 21.5296 51.7154 21.536L51.7056 21.536H51.725L51.7154 21.536C54.6281 21.5296 55.9944 18.6765 55.9944 15.1472C55.9944 11.6138 54.8417 8.75827 51.725 8.75827C48.8056 8.75827 47.4528 11.6138 47.4528 15.1472ZM59.1167 6.81382C58.1778 7.99993 56.8222 9.5916 56.8222 9.5916C55.0417 7.51105 52.8417 6.89716 50.7111 6.89716C46.8361 6.89716 43.1639 9.95271 43.1639 14.8333C43.1639 21.3194 47.4139 23.4583 50.8556 23.4583C53.6333 23.4583 55.3167 22.1722 56.2056 20.8638C56.6963 22.4044 58.1248 23.4525 59.7417 23.4583C61.6861 23.4583 63.6778 22.2444 63.6778 18.5055L62.3944 18.3722C62.3417 19.0166 62.1333 20.6999 60.975 20.5333C60.2722 20.4305 60.0972 19.7583 60.0972 18.6166V14.6777V7.2916C60.0917 6.25549 59.3778 6.45271 59.0972 6.80827L59.1167 6.81382ZM15.6472 10.7027H14.5861L14.5806 9.34438L19.4472 7.39994H20.8028V9.38605C20.8028 9.38605 22.3111 6.98605 25.9083 6.98605C25.9083 6.98605 29.6444 6.96105 30.5694 9.5166C31.7604 7.95337 33.6044 7.02519 35.5694 6.99994C38.8361 6.99994 39.7833 8.55827 40.3583 9.5166L40.3624 9.52506L40.3746 9.54854C40.4651 9.72152 40.8139 10.3878 40.8139 12.3249V20.6222C40.8146 20.8866 40.9204 21.14 41.1079 21.3265C41.2955 21.513 41.5494 21.6173 41.8139 21.6166H42.5917V23.1055H34.8722V21.6166H35.6472C36.198 21.6166 36.6444 21.1701 36.6444 20.6194V13.3027C36.6444 13.3027 36.7222 9.48882 34.1028 9.48882C31.2722 9.48882 30.8722 12.3249 30.8722 13.311C30.8472 14.9888 30.8472 18.7944 30.8472 20.611C30.8472 21.1633 31.2949 21.611 31.8472 21.611H32.6333V23.1027H25.1556V21.6138H25.6444C25.9094 21.6146 26.1638 21.5098 26.3514 21.3227C26.539 21.1356 26.6444 20.8816 26.6444 20.6166V13.2972C26.6444 13.2972 26.8111 9.51382 23.9583 9.51382C20.8417 9.51382 20.8722 13.3055 20.8722 13.3055L20.8472 20.611C20.8472 21.1638 21.2945 21.6123 21.8472 21.6138H22.6222V23.1027H14.8694V21.6166H15.65C16.2008 21.6166 16.6472 21.1701 16.6472 20.6194V11.7027C16.6472 11.1504 16.1995 10.7027 15.6472 10.7027ZM66.4111 4.55271V20.6194C66.4111 21.1701 65.9646 21.6166 65.4139 21.6166H64.5917V23.1055H72.3694V21.6166H71.5583C71.0076 21.6166 70.5611 21.1701 70.5611 20.6194V0.277713H69.2833L64.3167 2.19716V3.55271H65.4028C65.9496 3.55879 66.3902 4.00304 66.3917 4.54993L66.4111 4.55271ZM152.647 10.3166C152.647 10.3166 153.886 7.03605 157.253 7.03605C158.95 7.03605 160 8.06382 160 9.50827C160 11.2638 158.75 11.9444 157.483 11.9444C156.152 11.8987 155.091 10.8176 155.069 9.48605V9.43605C155.069 9.43605 153.233 10.3138 153.233 13.011V20.6222C153.233 21.1729 153.68 21.6194 154.231 21.6194H155.008V23.1055H147.078V21.6194H147.853C148.404 21.6178 148.85 21.1706 148.85 20.6194V7.53049C148.85 7.53049 148.789 6.83049 149.181 6.69716C149.572 6.56382 149.739 6.6916 150.292 7.43049C150.844 8.16938 152.647 10.3166 152.647 10.3166ZM4.25833 10.261C4.25833 9.1666 5.13611 8.34993 6.93333 8.34993C9.20556 8.34993 10.6361 9.57771 10.7806 12.0055L12.1 12.1944L12.725 8.58327C11.7583 7.83049 9.86111 6.85827 6.84444 6.85827C3.41389 6.85827 0.35 8.63049 0.35 11.7999C0.35 14.9713 3.09299 15.896 5.6611 16.7617L5.66114 16.7617L5.66155 16.7618L5.66209 16.762L5.66263 16.7622L5.66317 16.7624C5.80485 16.8101 5.94599 16.8577 6.08611 16.9055C7.82778 17.4999 9.69722 18.1388 9.69722 19.6833C9.69722 20.8444 8.85 21.8277 6.80833 21.8277C4.63889 21.8277 2.3 20.5222 2.025 17.4638L0.769444 17.3138L0 20.9499C1.50833 22.4583 4.06667 23.4222 6.58056 23.4222C9.96667 23.4222 13.525 21.7555 13.525 17.8666C13.525 14.8755 11.2798 14.0787 9.08749 13.3006C8.87942 13.2268 8.67182 13.1531 8.46667 13.0777C8.08371 12.937 7.7145 12.8109 7.36461 12.6913C5.55221 12.0721 4.25833 11.6301 4.25833 10.261ZM75.6472 20.6194V4.54993C75.6472 4.00242 75.2058 3.55729 74.6583 3.55271H73.5722V2.19716L78.5389 0.277713H79.8139V20.6194C79.8139 21.1701 80.2604 21.6166 80.8111 21.6166H81.625V23.1055H73.8472V21.6166H74.6472C75.1984 21.6166 75.6457 21.1706 75.6472 20.6194ZM118.953 21.7166C116.117 21.7166 114.681 18.7722 114.681 15.1416C114.681 11.511 116.033 8.56382 118.953 8.56382C121.872 8.56382 123.225 11.5083 123.225 15.1416C123.225 18.7749 121.789 21.7166 118.953 21.7166ZM127.55 15.1416C127.55 20.2545 123.702 23.4404 118.956 23.4416C114.21 23.4404 110.369 20.2573 110.369 15.1416C110.369 10.0249 114.214 6.83882 118.958 6.83882C123.703 6.83882 127.55 10.0277 127.55 15.1416ZM137.969 21.7166C135.133 21.7166 133.697 18.7722 133.697 15.1416C133.697 11.511 135.053 8.56382 137.969 8.56382C140.889 8.56382 142.242 11.5083 142.242 15.1416C142.242 18.7749 140.806 21.7166 137.969 21.7166ZM146.581 15.1416C146.581 20.2545 142.718 23.4404 137.972 23.4416C133.226 23.4404 129.358 20.2573 129.358 15.1416C129.358 10.0249 133.208 6.83882 137.969 6.83882C142.731 6.83882 146.581 10.0277 146.581 15.1416ZM137.972 23.4416C137.971 23.4416 137.97 23.4416 137.969 23.4416H137.975C137.974 23.4416 137.973 23.4416 137.972 23.4416Z" fill="black"/>
</svg>
